# xmcd
#
# Track frame offsets:
# 150
# 16420
# 33295
# 48554
# 70056
# 83443
# 99016
# 113569
# 128506
# 144984
# 162686
#
# Disc length: 2452 seconds
#
#
# Revision: 0
# Processed by: cddbd v1.5.2PL0 Copyright (c) Steve Scherf et al.
# Submitted via: FreeRIP 2.96 
#
DISCID=7d09920b
DTITLE=Joey Holiday - Trick My Truck
DYEAR=2007
DGENRE=Country
TTITLE0=Trick My Truck
TTITLE1=Soldiers Of The Highway
TTITLE2=God Won't Bless A Godless America
TTITLE3=Jackson ST 229
TTITLE4=Truck And Roll
TTITLE5=Times Up
TTITLE6=Then Came You
TTITLE7=Thank God For Those Big Machines
TTITLE8=Hey There Bocephus
TTITLE9=Take A Hold Of The Wheel
TTITLE10=Big Joe,The Phantom,& Red Sovine
EXTD=
EXTT0=
EXTT1=
EXTT2=
EXTT3=
EXTT4=
EXTT5=
EXTT6=
EXTT7=
EXTT8=
EXTT9=
EXTT10=
PLAYORDER=
